<?xml version="1.0" encoding="iso-8859-1"?>
<!-- Generator: Adobe Illustrator 19.0.0, SVG Export Plug-In . SVG Version: 6.00 Build 0)  -->
<svg xmlns="http://www.w3.org/2000/svg" xmlns:xlink="http://www.w3.org/1999/xlink" version="1.1" id="Capa_1" x="0px" y="0px" viewBox="0 0 503.68 503.68" style="enable-background:new 0 0 503.68 503.68;" xml:space="preserve" width="512px" height="512px">
<g>
	<g>
		<path d="M251.84,0l-224,129.312v245.056l224,129.312l224-129.312V129.312L251.84,0z M59.84,166.256l48.624,28.064L59.84,242.848    V166.256z M59.84,288.08l77.328-77.184l28.8,16.576L59.84,333.44V288.08z M74.24,364.224l120.304-120.192l28.64,16.544    L103.04,380.8L74.24,364.224z M235.84,457.504l-46.768-26.992l46.768-46.768V457.504z M235.84,338.496l-75.456,75.456    l-28.736-16.512L235.84,293.184V338.496z M75.84,138.544l176-101.616l176,101.616l-176,101.632L75.84,138.544z M443.84,355.84    l-176,101.6v-189.6l176-101.616V355.84z" fill="#232b2b"/>
	</g>
</g>
<g>
</g>
<g>
</g>
<g>
</g>
<g>
</g>
<g>
</g>
<g>
</g>
<g>
</g>
<g>
</g>
<g>
</g>
<g>
</g>
<g>
</g>
<g>
</g>
<g>
</g>
<g>
</g>
<g>
</g>
</svg>
